solid OpenSCAD_Model
  facet normal 1 0 0
    outer loop
      vertex -38.1 17.4625 50.8
      vertex -38.1 12.7 50.8
      vertex -38.1 17.4625 43.19
    endloop
  endfacet
  facet normal 1 0 0
    outer loop
      vertex -38.1 33.3375 43.19
      vertex -38.1 38.1 50.8
      vertex -38.1 33.3375 50.8
    endloop
  endfacet
  facet normal 1 0 0
    outer loop
      vertex -38.1 38.1 50.8
      vertex -38.1 33.3375 43.19
      vertex -38.1 38.1 7.62939e-07
    endloop
  endfacet
  facet normal 1 -0 0
    outer loop
      vertex -38.1 17.4625 43.19
      vertex -38.1 38.1 7.62939e-07
      vertex -38.1 33.3375 43.19
    endloop
  endfacet
  facet normal 1 0 0
    outer loop
      vertex -38.1 12.7 7.62939e-07
      vertex -38.1 17.4625 43.19
      vertex -38.1 12.7 50.8
    endloop
  endfacet
  facet normal 1 0 0
    outer loop
      vertex -38.1 17.4625 43.19
      vertex -38.1 12.7 7.62939e-07
      vertex -38.1 38.1 7.62939e-07
    endloop
  endfacet
  facet normal 0 0 -1
    outer loop
      vertex -50.8 12.7 7.62939e-07
      vertex -38.1 38.1 7.62939e-07
      vertex -38.1 12.7 7.62939e-07
    endloop
  endfacet
  facet normal -0 0 -1
    outer loop
      vertex -38.1 38.1 7.62939e-07
      vertex -50.8 12.7 7.62939e-07
      vertex -50.8 38.1 7.62939e-07
    endloop
  endfacet
  facet normal -0 0 1
    outer loop
      vertex -50.8 17.4625 50.8
      vertex -38.1 12.7 50.8
      vertex -38.1 17.4625 50.8
    endloop
  endfacet
  facet normal 0 0 1
    outer loop
      vertex -38.1 12.7 50.8
      vertex -50.8 17.4625 50.8
      vertex -50.8 12.7 50.8
    endloop
  endfacet
  facet normal -0 0 1
    outer loop
      vertex -50.8 38.1 50.8
      vertex -38.1 33.3375 50.8
      vertex -38.1 38.1 50.8
    endloop
  endfacet
  facet normal 0 0 1
    outer loop
      vertex -38.1 33.3375 50.8
      vertex -50.8 38.1 50.8
      vertex -50.8 33.3375 50.8
    endloop
  endfacet
  facet normal -1 0 0
    outer loop
      vertex -50.8 38.1 7.62939e-07
      vertex -50.8 33.3375 43.19
      vertex -50.8 38.1 50.8
    endloop
  endfacet
  facet normal -1 0 0
    outer loop
      vertex -50.8 38.1 7.62939e-07
      vertex -50.8 17.4625 43.19
      vertex -50.8 33.3375 43.19
    endloop
  endfacet
  facet normal -1 0 0
    outer loop
      vertex -50.8 12.7 7.62939e-07
      vertex -50.8 17.4625 43.19
      vertex -50.8 38.1 7.62939e-07
    endloop
  endfacet
  facet normal -1 0 0
    outer loop
      vertex -50.8 12.7 50.8
      vertex -50.8 17.4625 43.19
      vertex -50.8 12.7 7.62939e-07
    endloop
  endfacet
  facet normal -1 0 0
    outer loop
      vertex -50.8 17.4625 43.19
      vertex -50.8 12.7 50.8
      vertex -50.8 17.4625 50.8
    endloop
  endfacet
  facet normal -1 -0 0
    outer loop
      vertex -50.8 38.1 50.8
      vertex -50.8 33.3375 43.19
      vertex -50.8 33.3375 50.8
    endloop
  endfacet
  facet normal 0 -1 0
    outer loop
      vertex -50.8 12.7 7.62939e-07
      vertex -38.1 12.7 50.8
      vertex -50.8 12.7 50.8
    endloop
  endfacet
  facet normal 0 -1 -0
    outer loop
      vertex -38.1 12.7 50.8
      vertex -50.8 12.7 7.62939e-07
      vertex -38.1 12.7 7.62939e-07
    endloop
  endfacet
  facet normal 0 1 -0
    outer loop
      vertex -38.1 38.1 7.62939e-07
      vertex -50.8 38.1 50.8
      vertex -38.1 38.1 50.8
    endloop
  endfacet
  facet normal 0 1 0
    outer loop
      vertex -50.8 38.1 50.8
      vertex -38.1 38.1 7.62939e-07
      vertex -50.8 38.1 7.62939e-07
    endloop
  endfacet
  facet normal -0 0 1
    outer loop
      vertex -50.8 33.3375 43.19
      vertex -38.1 17.4625 43.19
      vertex -38.1 33.3375 43.19
    endloop
  endfacet
  facet normal 0 0 1
    outer loop
      vertex -38.1 17.4625 43.19
      vertex -50.8 33.3375 43.19
      vertex -50.8 17.4625 43.19
    endloop
  endfacet
  facet normal 0 1 -0
    outer loop
      vertex -38.1 17.4625 43.19
      vertex -50.8 17.4625 50.8
      vertex -38.1 17.4625 50.8
    endloop
  endfacet
  facet normal 0 1 0
    outer loop
      vertex -50.8 17.4625 50.8
      vertex -38.1 17.4625 43.19
      vertex -50.8 17.4625 43.19
    endloop
  endfacet
  facet normal 0 -1 0
    outer loop
      vertex -50.8 33.3375 43.19
      vertex -38.1 33.3375 50.8
      vertex -50.8 33.3375 50.8
    endloop
  endfacet
  facet normal 0 -1 -0
    outer loop
      vertex -38.1 33.3375 50.8
      vertex -50.8 33.3375 43.19
      vertex -38.1 33.3375 43.19
    endloop
  endfacet
  facet normal 1 0 0
    outer loop
      vertex -38.1 -7.9375 38.1
      vertex -38.1 -12.7 38.1
      vertex -38.1 -7.9375 30.49
    endloop
  endfacet
  facet normal 1 -0 0
    outer loop
      vertex -38.1 -7.9375 30.49
      vertex -38.1 12.7 5.72205e-07
      vertex -38.1 12.7 30.49
    endloop
  endfacet
  facet normal 1 0 0
    outer loop
      vertex -38.1 -7.9375 30.49
      vertex -38.1 -12.7 5.72205e-07
      vertex -38.1 12.7 5.72205e-07
    endloop
  endfacet
  facet normal 1 0 0
    outer loop
      vertex -38.1 -12.7 5.72205e-07
      vertex -38.1 -7.9375 30.49
      vertex -38.1 -12.7 38.1
    endloop
  endfacet
  facet normal 0 0 -1
    outer loop
      vertex -50.8 -12.7 5.72205e-07
      vertex -38.1 12.7 5.72205e-07
      vertex -38.1 -12.7 5.72205e-07
    endloop
  endfacet
  facet normal -0 0 -1
    outer loop
      vertex -38.1 12.7 5.72205e-07
      vertex -50.8 -12.7 5.72205e-07
      vertex -50.8 12.7 5.72205e-07
    endloop
  endfacet
  facet normal -0 0 1
    outer loop
      vertex -50.8 -7.9375 38.1
      vertex -38.1 -12.7 38.1
      vertex -38.1 -7.9375 38.1
    endloop
  endfacet
  facet normal 0 0 1
    outer loop
      vertex -38.1 -12.7 38.1
      vertex -50.8 -7.9375 38.1
      vertex -50.8 -12.7 38.1
    endloop
  endfacet
  facet normal -1 0 0
    outer loop
      vertex -50.8 12.7 5.72205e-07
      vertex -50.8 -7.9375 30.49
      vertex -50.8 12.7 30.49
    endloop
  endfacet
  facet normal -1 0 0
    outer loop
      vertex -50.8 -12.7 5.72205e-07
      vertex -50.8 -7.9375 30.49
      vertex -50.8 12.7 5.72205e-07
    endloop
  endfacet
  facet normal -1 0 0
    outer loop
      vertex -50.8 -12.7 38.1
      vertex -50.8 -7.9375 30.49
      vertex -50.8 -12.7 5.72205e-07
    endloop
  endfacet
  facet normal -1 0 0
    outer loop
      vertex -50.8 -7.9375 30.49
      vertex -50.8 -12.7 38.1
      vertex -50.8 -7.9375 38.1
    endloop
  endfacet
  facet normal 0 -1 0
    outer loop
      vertex -50.8 -12.7 5.72205e-07
      vertex -38.1 -12.7 38.1
      vertex -50.8 -12.7 38.1
    endloop
  endfacet
  facet normal 0 -1 -0
    outer loop
      vertex -38.1 -12.7 38.1
      vertex -50.8 -12.7 5.72205e-07
      vertex -38.1 -12.7 5.72205e-07
    endloop
  endfacet
  facet normal 0 1 -0
    outer loop
      vertex -38.1 12.7 5.72205e-07
      vertex -50.8 12.7 30.49
      vertex -38.1 12.7 30.49
    endloop
  endfacet
  facet normal 0 1 0
    outer loop
      vertex -50.8 12.7 30.49
      vertex -38.1 12.7 5.72205e-07
      vertex -50.8 12.7 5.72205e-07
    endloop
  endfacet
  facet normal -0 0 1
    outer loop
      vertex -50.8 12.7 30.49
      vertex -38.1 -7.9375 30.49
      vertex -38.1 12.7 30.49
    endloop
  endfacet
  facet normal 0 0 1
    outer loop
      vertex -38.1 -7.9375 30.49
      vertex -50.8 12.7 30.49
      vertex -50.8 -7.9375 30.49
    endloop
  endfacet
  facet normal 0 1 -0
    outer loop
      vertex -38.1 -7.9375 30.49
      vertex -50.8 -7.9375 38.1
      vertex -38.1 -7.9375 38.1
    endloop
  endfacet
  facet normal 0 1 0
    outer loop
      vertex -50.8 -7.9375 38.1
      vertex -38.1 -7.9375 30.49
      vertex -50.8 -7.9375 30.49
    endloop
  endfacet
  facet normal 1 0 0
    outer loop
      vertex -38.1 -33.3375 25.4
      vertex -38.1 -38.1 25.4
      vertex -38.1 -33.3375 17.79
    endloop
  endfacet
  facet normal 1 -0 0
    outer loop
      vertex -38.1 -33.3375 17.79
      vertex -38.1 -12.7 3.8147e-07
      vertex -38.1 -12.7 17.79
    endloop
  endfacet
  facet normal 1 0 0
    outer loop
      vertex -38.1 -33.3375 17.79
      vertex -38.1 -38.1 3.8147e-07
      vertex -38.1 -12.7 3.8147e-07
    endloop
  endfacet
  facet normal 1 0 0
    outer loop
      vertex -38.1 -38.1 3.8147e-07
      vertex -38.1 -33.3375 17.79
      vertex -38.1 -38.1 25.4
    endloop
  endfacet
  facet normal 0 0 -1
    outer loop
      vertex -50.8 -38.1 3.8147e-07
      vertex -38.1 -12.7 3.8147e-07
      vertex -38.1 -38.1 3.8147e-07
    endloop
  endfacet
  facet normal -0 0 -1
    outer loop
      vertex -38.1 -12.7 3.8147e-07
      vertex -50.8 -38.1 3.8147e-07
      vertex -50.8 -12.7 3.8147e-07
    endloop
  endfacet
  facet normal -0 0 1
    outer loop
      vertex -50.8 -33.3375 25.4
      vertex -38.1 -38.1 25.4
      vertex -38.1 -33.3375 25.4
    endloop
  endfacet
  facet normal 0 0 1
    outer loop
      vertex -38.1 -38.1 25.4
      vertex -50.8 -33.3375 25.4
      vertex -50.8 -38.1 25.4
    endloop
  endfacet
  facet normal -1 0 0
    outer loop
      vertex -50.8 -12.7 3.8147e-07
      vertex -50.8 -33.3375 17.79
      vertex -50.8 -12.7 17.79
    endloop
  endfacet
  facet normal -1 0 0
    outer loop
      vertex -50.8 -38.1 3.8147e-07
      vertex -50.8 -33.3375 17.79
      vertex -50.8 -12.7 3.8147e-07
    endloop
  endfacet
  facet normal -1 0 0
    outer loop
      vertex -50.8 -38.1 25.4
      vertex -50.8 -33.3375 17.79
      vertex -50.8 -38.1 3.8147e-07
    endloop
  endfacet
  facet normal -1 0 0
    outer loop
      vertex -50.8 -33.3375 17.79
      vertex -50.8 -38.1 25.4
      vertex -50.8 -33.3375 25.4
    endloop
  endfacet
  facet normal 0 -1 0
    outer loop
      vertex -50.8 -38.1 3.8147e-07
      vertex -38.1 -38.1 25.4
      vertex -50.8 -38.1 25.4
    endloop
  endfacet
  facet normal 0 -1 -0
    outer loop
      vertex -38.1 -38.1 25.4
      vertex -50.8 -38.1 3.8147e-07
      vertex -38.1 -38.1 3.8147e-07
    endloop
  endfacet
  facet normal 0 1 -0
    outer loop
      vertex -38.1 -12.7 3.8147e-07
      vertex -50.8 -12.7 17.79
      vertex -38.1 -12.7 17.79
    endloop
  endfacet
  facet normal 0 1 0
    outer loop
      vertex -50.8 -12.7 17.79
      vertex -38.1 -12.7 3.8147e-07
      vertex -50.8 -12.7 3.8147e-07
    endloop
  endfacet
  facet normal -0 0 1
    outer loop
      vertex -50.8 -12.7 17.79
      vertex -38.1 -33.3375 17.79
      vertex -38.1 -12.7 17.79
    endloop
  endfacet
  facet normal 0 0 1
    outer loop
      vertex -38.1 -33.3375 17.79
      vertex -50.8 -12.7 17.79
      vertex -50.8 -33.3375 17.79
    endloop
  endfacet
  facet normal 0 1 -0
    outer loop
      vertex -38.1 -33.3375 17.79
      vertex -50.8 -33.3375 25.4
      vertex -38.1 -33.3375 25.4
    endloop
  endfacet
  facet normal 0 1 0
    outer loop
      vertex -50.8 -33.3375 25.4
      vertex -38.1 -33.3375 17.79
      vertex -50.8 -33.3375 17.79
    endloop
  endfacet
  facet normal 1 0 0
    outer loop
      vertex 31.75 17.4625 50.8
      vertex 31.75 12.7 50.8
      vertex 31.75 17.4625 43.19
    endloop
  endfacet
  facet normal 1 0 0
    outer loop
      vertex 31.75 33.3375 43.19
      vertex 31.75 38.1 50.8
      vertex 31.75 33.3375 50.8
    endloop
  endfacet
  facet normal 1 0 0
    outer loop
      vertex 31.75 38.1 50.8
      vertex 31.75 33.3375 43.19
      vertex 31.75 38.1 7.62939e-07
    endloop
  endfacet
  facet normal 1 -0 0
    outer loop
      vertex 31.75 17.4625 43.19
      vertex 31.75 38.1 7.62939e-07
      vertex 31.75 33.3375 43.19
    endloop
  endfacet
  facet normal 1 0 0
    outer loop
      vertex 31.75 12.7 7.62939e-07
      vertex 31.75 17.4625 43.19
      vertex 31.75 12.7 50.8
    endloop
  endfacet
  facet normal 1 0 0
    outer loop
      vertex 31.75 17.4625 43.19
      vertex 31.75 12.7 7.62939e-07
      vertex 31.75 38.1 7.62939e-07
    endloop
  endfacet
  facet normal 0 0 -1
    outer loop
      vertex 19.05 12.7 7.62939e-07
      vertex 31.75 38.1 7.62939e-07
      vertex 31.75 12.7 7.62939e-07
    endloop
  endfacet
  facet normal -0 0 -1
    outer loop
      vertex 31.75 38.1 7.62939e-07
      vertex 19.05 12.7 7.62939e-07
      vertex 19.05 38.1 7.62939e-07
    endloop
  endfacet
  facet normal -0 0 1
    outer loop
      vertex 19.05 17.4625 50.8
      vertex 31.75 12.7 50.8
      vertex 31.75 17.4625 50.8
    endloop
  endfacet
  facet normal 0 0 1
    outer loop
      vertex 31.75 12.7 50.8
      vertex 19.05 17.4625 50.8
      vertex 19.05 12.7 50.8
    endloop
  endfacet
  facet normal -0 0 1
    outer loop
      vertex 19.05 38.1 50.8
      vertex 31.75 33.3375 50.8
      vertex 31.75 38.1 50.8
    endloop
  endfacet
  facet normal 0 0 1
    outer loop
      vertex 31.75 33.3375 50.8
      vertex 19.05 38.1 50.8
      vertex 19.05 33.3375 50.8
    endloop
  endfacet
  facet normal -1 0 0
    outer loop
      vertex 19.05 38.1 7.62939e-07
      vertex 19.05 33.3375 43.19
      vertex 19.05 38.1 50.8
    endloop
  endfacet
  facet normal -1 0 0
    outer loop
      vertex 19.05 38.1 7.62939e-07
      vertex 19.05 17.4625 43.19
      vertex 19.05 33.3375 43.19
    endloop
  endfacet
  facet normal -1 0 0
    outer loop
      vertex 19.05 12.7 7.62939e-07
      vertex 19.05 17.4625 43.19
      vertex 19.05 38.1 7.62939e-07
    endloop
  endfacet
  facet normal -1 0 0
    outer loop
      vertex 19.05 12.7 50.8
      vertex 19.05 17.4625 43.19
      vertex 19.05 12.7 7.62939e-07
    endloop
  endfacet
  facet normal -1 0 0
    outer loop
      vertex 19.05 17.4625 43.19
      vertex 19.05 12.7 50.8
      vertex 19.05 17.4625 50.8
    endloop
  endfacet
  facet normal -1 -0 0
    outer loop
      vertex 19.05 38.1 50.8
      vertex 19.05 33.3375 43.19
      vertex 19.05 33.3375 50.8
    endloop
  endfacet
  facet normal 0 -1 0
    outer loop
      vertex 19.05 12.7 7.62939e-07
      vertex 31.75 12.7 50.8
      vertex 19.05 12.7 50.8
    endloop
  endfacet
  facet normal 0 -1 -0
    outer loop
      vertex 31.75 12.7 50.8
      vertex 19.05 12.7 7.62939e-07
      vertex 31.75 12.7 7.62939e-07
    endloop
  endfacet
  facet normal 0 1 -0
    outer loop
      vertex 31.75 38.1 7.62939e-07
      vertex 19.05 38.1 50.8
      vertex 31.75 38.1 50.8
    endloop
  endfacet
  facet normal 0 1 0
    outer loop
      vertex 19.05 38.1 50.8
      vertex 31.75 38.1 7.62939e-07
      vertex 19.05 38.1 7.62939e-07
    endloop
  endfacet
  facet normal -0 0 1
    outer loop
      vertex 19.05 33.3375 43.19
      vertex 31.75 17.4625 43.19
      vertex 31.75 33.3375 43.19
    endloop
  endfacet
  facet normal 0 0 1
    outer loop
      vertex 31.75 17.4625 43.19
      vertex 19.05 33.3375 43.19
      vertex 19.05 17.4625 43.19
    endloop
  endfacet
  facet normal 0 1 -0
    outer loop
      vertex 31.75 17.4625 43.19
      vertex 19.05 17.4625 50.8
      vertex 31.75 17.4625 50.8
    endloop
  endfacet
  facet normal 0 1 0
    outer loop
      vertex 19.05 17.4625 50.8
      vertex 31.75 17.4625 43.19
      vertex 19.05 17.4625 43.19
    endloop
  endfacet
  facet normal 0 -1 0
    outer loop
      vertex 19.05 33.3375 43.19
      vertex 31.75 33.3375 50.8
      vertex 19.05 33.3375 50.8
    endloop
  endfacet
  facet normal 0 -1 -0
    outer loop
      vertex 31.75 33.3375 50.8
      vertex 19.05 33.3375 43.19
      vertex 31.75 33.3375 43.19
    endloop
  endfacet
  facet normal 1 0 0
    outer loop
      vertex 31.75 -7.9375 38.1
      vertex 31.75 -12.7 38.1
      vertex 31.75 -7.9375 30.49
    endloop
  endfacet
  facet normal 1 -0 0
    outer loop
      vertex 31.75 -7.9375 30.49
      vertex 31.75 12.7 5.72205e-07
      vertex 31.75 12.7 30.49
    endloop
  endfacet
  facet normal 1 0 0
    outer loop
      vertex 31.75 -7.9375 30.49
      vertex 31.75 -12.7 5.72205e-07
      vertex 31.75 12.7 5.72205e-07
    endloop
  endfacet
  facet normal 1 0 0
    outer loop
      vertex 31.75 -12.7 5.72205e-07
      vertex 31.75 -7.9375 30.49
      vertex 31.75 -12.7 38.1
    endloop
  endfacet
  facet normal 0 0 -1
    outer loop
      vertex 19.05 -12.7 5.72205e-07
      vertex 31.75 12.7 5.72205e-07
      vertex 31.75 -12.7 5.72205e-07
    endloop
  endfacet
  facet normal -0 0 -1
    outer loop
      vertex 31.75 12.7 5.72205e-07
      vertex 19.05 -12.7 5.72205e-07
      vertex 19.05 12.7 5.72205e-07
    endloop
  endfacet
  facet normal -0 0 1
    outer loop
      vertex 19.05 -7.9375 38.1
      vertex 31.75 -12.7 38.1
      vertex 31.75 -7.9375 38.1
    endloop
  endfacet
  facet normal 0 0 1
    outer loop
      vertex 31.75 -12.7 38.1
      vertex 19.05 -7.9375 38.1
      vertex 19.05 -12.7 38.1
    endloop
  endfacet
  facet normal -1 0 0
    outer loop
      vertex 19.05 12.7 5.72205e-07
      vertex 19.05 -7.9375 30.49
      vertex 19.05 12.7 30.49
    endloop
  endfacet
  facet normal -1 0 0
    outer loop
      vertex 19.05 -12.7 5.72205e-07
      vertex 19.05 -7.9375 30.49
      vertex 19.05 12.7 5.72205e-07
    endloop
  endfacet
  facet normal -1 0 0
    outer loop
      vertex 19.05 -12.7 38.1
      vertex 19.05 -7.9375 30.49
      vertex 19.05 -12.7 5.72205e-07
    endloop
  endfacet
  facet normal -1 0 0
    outer loop
      vertex 19.05 -7.9375 30.49
      vertex 19.05 -12.7 38.1
      vertex 19.05 -7.9375 38.1
    endloop
  endfacet
  facet normal 0 -1 0
    outer loop
      vertex 19.05 -12.7 5.72205e-07
      vertex 31.75 -12.7 38.1
      vertex 19.05 -12.7 38.1
    endloop
  endfacet
  facet normal 0 -1 -0
    outer loop
      vertex 31.75 -12.7 38.1
      vertex 19.05 -12.7 5.72205e-07
      vertex 31.75 -12.7 5.72205e-07
    endloop
  endfacet
  facet normal 0 1 -0
    outer loop
      vertex 31.75 12.7 5.72205e-07
      vertex 19.05 12.7 30.49
      vertex 31.75 12.7 30.49
    endloop
  endfacet
  facet normal 0 1 0
    outer loop
      vertex 19.05 12.7 30.49
      vertex 31.75 12.7 5.72205e-07
      vertex 19.05 12.7 5.72205e-07
    endloop
  endfacet
  facet normal -0 0 1
    outer loop
      vertex 19.05 12.7 30.49
      vertex 31.75 -7.9375 30.49
      vertex 31.75 12.7 30.49
    endloop
  endfacet
  facet normal 0 0 1
    outer loop
      vertex 31.75 -7.9375 30.49
      vertex 19.05 12.7 30.49
      vertex 19.05 -7.9375 30.49
    endloop
  endfacet
  facet normal 0 1 -0
    outer loop
      vertex 31.75 -7.9375 30.49
      vertex 19.05 -7.9375 38.1
      vertex 31.75 -7.9375 38.1
    endloop
  endfacet
  facet normal 0 1 0
    outer loop
      vertex 19.05 -7.9375 38.1
      vertex 31.75 -7.9375 30.49
      vertex 19.05 -7.9375 30.49
    endloop
  endfacet
  facet normal 1 0 0
    outer loop
      vertex 31.75 -33.3375 25.4
      vertex 31.75 -38.1 25.4
      vertex 31.75 -33.3375 17.79
    endloop
  endfacet
  facet normal 1 -0 0
    outer loop
      vertex 31.75 -33.3375 17.79
      vertex 31.75 -12.7 3.8147e-07
      vertex 31.75 -12.7 17.79
    endloop
  endfacet
  facet normal 1 0 0
    outer loop
      vertex 31.75 -33.3375 17.79
      vertex 31.75 -38.1 3.8147e-07
      vertex 31.75 -12.7 3.8147e-07
    endloop
  endfacet
  facet normal 1 0 0
    outer loop
      vertex 31.75 -38.1 3.8147e-07
      vertex 31.75 -33.3375 17.79
      vertex 31.75 -38.1 25.4
    endloop
  endfacet
  facet normal 0 0 -1
    outer loop
      vertex 19.05 -38.1 3.8147e-07
      vertex 31.75 -12.7 3.8147e-07
      vertex 31.75 -38.1 3.8147e-07
    endloop
  endfacet
  facet normal -0 0 -1
    outer loop
      vertex 31.75 -12.7 3.8147e-07
      vertex 19.05 -38.1 3.8147e-07
      vertex 19.05 -12.7 3.8147e-07
    endloop
  endfacet
  facet normal -0 0 1
    outer loop
      vertex 19.05 -33.3375 25.4
      vertex 31.75 -38.1 25.4
      vertex 31.75 -33.3375 25.4
    endloop
  endfacet
  facet normal 0 0 1
    outer loop
      vertex 31.75 -38.1 25.4
      vertex 19.05 -33.3375 25.4
      vertex 19.05 -38.1 25.4
    endloop
  endfacet
  facet normal -1 0 0
    outer loop
      vertex 19.05 -12.7 3.8147e-07
      vertex 19.05 -33.3375 17.79
      vertex 19.05 -12.7 17.79
    endloop
  endfacet
  facet normal -1 0 0
    outer loop
      vertex 19.05 -38.1 3.8147e-07
      vertex 19.05 -33.3375 17.79
      vertex 19.05 -12.7 3.8147e-07
    endloop
  endfacet
  facet normal -1 0 0
    outer loop
      vertex 19.05 -38.1 25.4
      vertex 19.05 -33.3375 17.79
      vertex 19.05 -38.1 3.8147e-07
    endloop
  endfacet
  facet normal -1 0 0
    outer loop
      vertex 19.05 -33.3375 17.79
      vertex 19.05 -38.1 25.4
      vertex 19.05 -33.3375 25.4
    endloop
  endfacet
  facet normal 0 -1 0
    outer loop
      vertex 19.05 -38.1 3.8147e-07
      vertex 31.75 -38.1 25.4
      vertex 19.05 -38.1 25.4
    endloop
  endfacet
  facet normal 0 -1 -0
    outer loop
      vertex 31.75 -38.1 25.4
      vertex 19.05 -38.1 3.8147e-07
      vertex 31.75 -38.1 3.8147e-07
    endloop
  endfacet
  facet normal 0 1 -0
    outer loop
      vertex 31.75 -12.7 3.8147e-07
      vertex 19.05 -12.7 17.79
      vertex 31.75 -12.7 17.79
    endloop
  endfacet
  facet normal 0 1 0
    outer loop
      vertex 19.05 -12.7 17.79
      vertex 31.75 -12.7 3.8147e-07
      vertex 19.05 -12.7 3.8147e-07
    endloop
  endfacet
  facet normal -0 0 1
    outer loop
      vertex 19.05 -12.7 17.79
      vertex 31.75 -33.3375 17.79
      vertex 31.75 -12.7 17.79
    endloop
  endfacet
  facet normal 0 0 1
    outer loop
      vertex 31.75 -33.3375 17.79
      vertex 19.05 -12.7 17.79
      vertex 19.05 -33.3375 17.79
    endloop
  endfacet
  facet normal 0 1 -0
    outer loop
      vertex 31.75 -33.3375 17.79
      vertex 19.05 -33.3375 25.4
      vertex 31.75 -33.3375 25.4
    endloop
  endfacet
  facet normal 0 1 0
    outer loop
      vertex 19.05 -33.3375 25.4
      vertex 31.75 -33.3375 17.79
      vertex 19.05 -33.3375 17.79
    endloop
  endfacet
  facet normal 1 -0 0
    outer loop
      vertex 31.75 -38.1 0
      vertex 31.75 38.1 -6.35
      vertex 31.75 38.1 0
    endloop
  endfacet
  facet normal 1 0 0
    outer loop
      vertex 31.75 38.1 -6.35
      vertex 31.75 -38.1 0
      vertex 31.75 -38.1 -6.35
    endloop
  endfacet
  facet normal 0 0 -1
    outer loop
      vertex -50.8 -38.1 -6.35
      vertex 31.75 38.1 -6.35
      vertex 31.75 -38.1 -6.35
    endloop
  endfacet
  facet normal -0 0 -1
    outer loop
      vertex 31.75 38.1 -6.35
      vertex -50.8 -38.1 -6.35
      vertex -50.8 38.1 -6.35
    endloop
  endfacet
  facet normal -0 0 1
    outer loop
      vertex -50.8 38.1 0
      vertex 31.75 -38.1 0
      vertex 31.75 38.1 0
    endloop
  endfacet
  facet normal 0 0 1
    outer loop
      vertex 31.75 -38.1 0
      vertex -50.8 38.1 0
      vertex -50.8 -38.1 0
    endloop
  endfacet
  facet normal -1 0 0
    outer loop
      vertex -50.8 -38.1 -6.35
      vertex -50.8 38.1 0
      vertex -50.8 38.1 -6.35
    endloop
  endfacet
  facet normal -1 -0 0
    outer loop
      vertex -50.8 38.1 0
      vertex -50.8 -38.1 -6.35
      vertex -50.8 -38.1 0
    endloop
  endfacet
  facet normal 0 -1 0
    outer loop
      vertex -50.8 -38.1 -6.35
      vertex 31.75 -38.1 0
      vertex -50.8 -38.1 0
    endloop
  endfacet
  facet normal 0 -1 -0
    outer loop
      vertex 31.75 -38.1 0
      vertex -50.8 -38.1 -6.35
      vertex 31.75 -38.1 -6.35
    endloop
  endfacet
  facet normal 0 1 -0
    outer loop
      vertex 31.75 38.1 -6.35
      vertex -50.8 38.1 0
      vertex 31.75 38.1 0
    endloop
  endfacet
  facet normal 0 1 0
    outer loop
      vertex -50.8 38.1 0
      vertex 31.75 38.1 -6.35
      vertex -50.8 38.1 -6.35
    endloop
  endfacet
endsolid OpenSCAD_Model
